<svg width="86" height="24" viewBox="0 0 86 24" fill="none" xmlns="http://www.w3.org/2000/svg">
<g clip-path="url(#clip0_1_2)">
<path d="M32.307 23.393C31.8777 23.393 31.5173 23.209 31.226 22.841C30.9347 22.4883 30.72 22.0513 30.582 21.53C30.444 21.0087 30.375 20.5103 30.375 20.035C30.375 19.115 30.5053 18.0953 30.766 16.976C31.0267 15.8567 31.3487 14.7143 31.732 13.549C32.1307 12.3837 32.537 11.2643 32.951 10.191C33.3803 9.10233 33.7637 8.121 34.101 7.247C34.4383 6.373 34.676 5.67533 34.814 5.154C34.8447 5.016 34.8677 4.89333 34.883 4.786C34.8983 4.66333 34.906 4.56367 34.906 4.487C34.906 4.211 34.8217 4.073 34.653 4.073C34.4077 4.073 34.0397 4.326 33.549 4.832C33.0583 5.32267 32.5063 5.99733 31.893 6.856C31.295 7.69933 30.697 8.65767 30.099 9.731C29.501 10.8043 28.9643 11.916 28.489 13.066C28.029 14.2007 27.707 15.3123 27.523 16.401C27.4617 16.7997 27.3543 17.0987 27.201 17.298C27.063 17.4973 26.925 17.597 26.787 17.597C26.6643 17.597 26.557 17.5203 26.465 17.367C26.373 17.2137 26.327 16.9913 26.327 16.7C26.3117 15.4733 26.2733 14.2467 26.212 13.02C26.1507 11.778 26.0127 10.5897 25.798 9.455C25.476 7.707 25.108 6.465 24.694 5.729C24.2953 4.993 23.8813 4.625 23.452 4.625C23.0533 4.625 22.6623 4.87033 22.279 5.361C21.911 5.83633 21.5583 6.47267 21.221 7.27C20.8837 8.052 20.5847 8.91067 20.324 9.846C20.0633 10.7813 19.8563 11.709 19.703 12.629C19.565 13.549 19.496 14.3693 19.496 15.09C19.496 15.2587 19.496 15.4273 19.496 15.596C19.5113 15.7493 19.5267 15.895 19.542 16.033C19.5573 16.1097 19.565 16.194 19.565 16.286C19.565 16.3627 19.565 16.4393 19.565 16.516C19.565 16.8687 19.519 17.183 19.427 17.459C19.335 17.735 19.2277 17.873 19.105 17.873C18.9823 17.873 18.8673 17.735 18.76 17.459C18.6373 17.183 18.5377 16.838 18.461 16.424C18.3843 15.9947 18.323 15.6343 18.277 15.343C18.2463 15.1283 18.1773 14.8063 18.07 14.377C17.978 13.9477 17.863 13.48 17.725 12.974C17.587 12.4527 17.426 11.9467 17.242 11.456C17.0733 10.95 16.8893 10.5207 16.69 10.168C16.4907 9.8 16.2837 9.56233 16.069 9.455C16.0383 9.42433 16.023 9.39367 16.023 9.363C16.023 9.28633 16.0997 9.24033 16.253 9.225C16.4217 9.20967 16.5367 9.21733 16.598 9.248C16.92 9.34 17.2037 9.57 17.449 9.938C17.7097 10.2907 17.932 10.7123 18.116 11.203C18.3153 11.6783 18.484 12.1537 18.622 12.629C18.76 13.089 18.875 13.4723 18.967 13.779C19.1357 12.721 19.335 11.6783 19.565 10.651C19.8103 9.60833 20.1323 8.58867 20.531 7.592C21.0983 6.212 21.658 5.23067 22.21 4.648C22.762 4.05 23.2833 3.751 23.774 3.751C24.2953 3.751 24.763 4.01933 25.177 4.556C25.6063 5.07733 25.9667 5.775 26.258 6.649C26.5647 7.50767 26.7717 8.443 26.879 9.455C26.9403 9.97633 26.9787 10.5437 26.994 11.157C27.0093 11.755 27.017 12.3453 27.017 12.928V14.722C27.017 14.9827 27.017 15.2203 27.017 15.435C27.017 15.6497 27.0247 15.826 27.04 15.964C27.1473 15.596 27.3237 15.0823 27.569 14.423C27.8143 13.7483 28.1133 12.997 28.466 12.169C28.8187 11.3257 29.2173 10.4593 29.662 9.57C30.1067 8.68067 30.582 7.82967 31.088 7.017C31.6093 6.189 32.146 5.46833 32.698 4.855C33.2653 4.22633 33.8327 3.76633 34.4 3.475C34.7373 3.30633 35.0517 3.222 35.343 3.222C35.6803 3.222 35.964 3.32167 36.194 3.521C36.424 3.705 36.539 3.981 36.539 4.349C36.539 4.901 36.424 5.453 36.194 6.005C35.964 6.54167 35.688 7.07067 35.366 7.592C35.044 8.11333 34.745 8.61933 34.469 9.11C33.9783 9.99933 33.4877 11.0267 32.997 12.192C32.5063 13.3573 32.0923 14.561 31.755 15.803C31.433 17.045 31.272 18.241 31.272 19.391C31.272 19.759 31.2873 20.1193 31.318 20.472C31.364 20.8247 31.433 21.162 31.525 21.484C31.663 21.9747 31.8317 22.312 32.031 22.496C32.2457 22.6953 32.4603 22.795 32.675 22.795C32.905 22.795 33.1197 22.726 33.319 22.588C33.5183 22.4653 33.6793 22.3273 33.802 22.174C33.9247 22.036 33.9783 21.9517 33.963 21.921C34.101 21.875 34.1547 21.9133 34.124 22.036C34.0933 22.174 34.032 22.312 33.94 22.45C33.848 22.6033 33.7867 22.6953 33.756 22.726C33.2193 23.1707 32.7363 23.393 32.307 23.393ZM36.1868 21.162C35.7575 21.162 35.4125 20.9397 35.1518 20.495C34.9065 20.0503 34.7838 19.322 34.7838 18.31C34.7838 17.62 34.8528 16.838 34.9908 15.964C35.1441 15.0747 35.3281 14.193 35.5428 13.319C35.7575 12.445 35.9645 11.6477 36.1638 10.927C36.3785 10.191 36.5471 9.62367 36.6698 9.225C36.7158 9.05633 36.7925 8.765 36.8998 8.351C37.0071 7.92167 37.1145 7.431 37.2218 6.879C37.3445 6.31167 37.4441 5.73667 37.5208 5.154C37.6128 4.556 37.6588 4.01167 37.6588 3.521C37.6588 3.03033 37.5975 2.61633 37.4748 2.279C37.3675 1.94167 37.1758 1.773 36.8998 1.773C36.7005 1.773 36.5088 1.85733 36.3248 2.026C36.1408 2.17933 35.9721 2.35567 35.8188 2.555C35.6655 2.739 35.5428 2.89233 35.4508 3.015C35.3588 3.12233 35.3128 3.12233 35.3128 3.015C35.2821 2.739 35.3435 2.43233 35.4968 2.095C35.6501 1.74233 35.8648 1.44333 36.1408 1.198C36.4168 0.937333 36.7081 0.807 37.0148 0.807C37.1835 0.807 37.3445 0.853 37.4978 0.944999C37.7738 1.083 37.9808 1.30533 38.1188 1.612C38.2721 1.91867 38.3795 2.24833 38.4408 2.601C38.5021 2.95367 38.5328 3.28333 38.5328 3.59C38.5328 4.66333 38.3948 5.79033 38.1188 6.971C37.8581 8.15167 37.5438 9.363 37.1758 10.605C36.8231 11.847 36.5088 13.0967 36.2328 14.354C35.9721 15.596 35.8418 16.8303 35.8418 18.057C35.8418 18.9463 35.9261 19.575 36.0948 19.943C36.2788 20.311 36.5088 20.495 36.7848 20.495C37.0915 20.495 37.4288 20.334 37.7968 20.012C38.1801 19.69 38.5711 19.2913 38.9698 18.816C39.3685 18.3407 39.7288 17.873 40.0508 17.413C40.3728 16.9683 40.7331 16.3857 41.1318 15.665C41.5458 14.9443 41.9675 14.1317 42.3968 13.227C42.8261 12.3223 43.2325 11.3793 43.6158 10.398C44.0145 9.41667 44.3671 8.443 44.6738 7.477C44.9805 6.511 45.2105 5.60633 45.3638 4.763C45.4251 4.487 45.5401 4.27233 45.7088 4.119C45.8775 3.95033 46.0461 3.866 46.2148 3.866C46.3681 3.866 46.4985 3.935 46.6058 4.073C46.7131 4.19567 46.7668 4.395 46.7668 4.671C46.7668 4.83967 46.7438 5.039 46.6978 5.269C46.6518 5.48367 46.5675 5.729 46.4448 6.005C46.1075 6.833 45.7778 7.78367 45.4558 8.857C45.1491 9.915 44.8808 10.996 44.6508 12.1C44.4208 13.204 44.2368 14.2467 44.0988 15.228C43.9608 16.2093 43.8918 17.0373 43.8918 17.712C43.8918 18.218 43.9378 18.6013 44.0298 18.862C44.1371 19.184 44.2598 19.4063 44.3978 19.529C44.5511 19.667 44.7045 19.736 44.8578 19.736C45.1185 19.736 45.3868 19.598 45.6628 19.322C45.9541 19.046 46.2301 18.7163 46.4908 18.333C46.7515 17.9497 46.9738 17.5893 47.1578 17.252C47.3571 16.8993 47.4951 16.654 47.5718 16.516C47.7405 16.2247 47.8785 16.079 47.9858 16.079C48.0471 16.079 48.0855 16.1097 48.1008 16.171C48.1315 16.217 48.1315 16.2783 48.1008 16.355C48.0548 16.5543 47.9551 16.8073 47.8018 17.114C47.6485 17.4207 47.4875 17.712 47.3188 17.988C47.1655 18.2487 47.0581 18.4327 46.9968 18.54C46.7975 18.8927 46.4985 19.2453 46.0998 19.598C45.7011 19.9507 45.2871 20.127 44.8578 20.127C44.7045 20.127 44.5435 20.0887 44.3748 20.012C44.2215 19.9507 44.0758 19.8433 43.9378 19.69C43.6311 19.3527 43.4165 18.9003 43.2938 18.333C43.1865 17.7503 43.1328 17.1217 43.1328 16.447C43.1328 15.6343 43.1865 14.8063 43.2938 13.963C43.4165 13.1197 43.5391 12.376 43.6618 11.732C43.3551 12.606 42.9641 13.4953 42.4888 14.4C42.0288 15.2893 41.5228 16.1403 40.9708 16.953C40.4188 17.7503 39.8515 18.4633 39.2688 19.092C38.7015 19.736 38.1495 20.242 37.6128 20.61C37.0761 20.978 36.6008 21.162 36.1868 21.162ZM46.1435 20.656C46.0668 20.656 46.0285 20.5947 46.0285 20.472C46.0285 20.3647 46.0668 20.2343 46.1435 20.081C46.2201 19.9277 46.3198 19.805 46.4425 19.713C46.5651 19.6363 46.6955 19.552 46.8335 19.46C46.9561 19.3833 47.0788 19.3143 47.2015 19.253C47.1861 19.2223 47.1785 19.1687 47.1785 19.092C47.1785 18.9693 47.2168 18.908 47.2935 18.908C47.3395 18.908 47.4085 18.9617 47.5005 19.069C48.6965 18.4097 49.8618 17.9267 50.9965 17.62V17.551C50.9965 17.1217 50.8815 16.723 50.6515 16.355C50.4368 15.987 50.1608 15.6113 49.8235 15.228C49.4861 14.8447 49.1411 14.423 48.7885 13.963C48.4511 13.503 48.1445 12.9817 47.8685 12.399C47.6078 11.801 47.4391 11.1033 47.3625 10.306C47.3471 10.214 47.3395 10.122 47.3395 10.03C47.3395 9.938 47.3395 9.846 47.3395 9.754C47.3395 8.77267 47.5618 7.88333 48.0065 7.086C48.4511 6.28867 49.0261 5.60633 49.7315 5.039C50.4521 4.45633 51.2265 4.004 52.0545 3.682C52.7138 3.42133 53.4651 3.291 54.3085 3.291C54.6151 3.291 54.9065 3.314 55.1825 3.36C55.9951 3.51333 56.5625 3.78167 56.8845 4.165C57.2065 4.54833 57.3675 4.93167 57.3675 5.315C57.3675 5.60633 57.2908 5.867 57.1375 6.097C56.9841 6.327 56.8768 6.442 56.8155 6.442C56.7695 6.442 56.7465 6.41133 56.7465 6.35C56.7465 6.31933 56.7541 6.27333 56.7695 6.212C56.8001 6.13533 56.8231 6.05867 56.8385 5.982C56.8845 5.85933 56.9151 5.752 56.9305 5.66C56.9458 5.568 56.9535 5.476 56.9535 5.384C56.9535 4.89333 56.7235 4.533 56.2635 4.303C55.8188 4.05767 55.3435 3.935 54.8375 3.935C54.7761 3.935 54.7071 3.935 54.6305 3.935C54.5538 3.935 54.4771 3.94267 54.4005 3.958C53.4345 4.096 52.5221 4.44867 51.6635 5.016C50.8048 5.58333 50.0765 6.327 49.4785 7.247C48.8958 8.15167 48.5125 9.19433 48.3285 10.375C48.3131 10.4823 48.2978 10.5897 48.2825 10.697C48.2825 10.8043 48.2825 10.904 48.2825 10.996C48.2825 11.7167 48.4358 12.376 48.7425 12.974C49.0491 13.5567 49.4095 14.101 49.8235 14.607C50.2528 15.113 50.6591 15.6037 51.0425 16.079C51.4258 16.539 51.6865 16.999 51.8245 17.459C52.1311 17.3977 52.4301 17.3593 52.7215 17.344C53.0128 17.3287 53.2965 17.3287 53.5725 17.344C53.7871 17.3747 53.8945 17.436 53.8945 17.528C53.8945 17.62 53.7411 17.666 53.4345 17.666C53.2198 17.666 52.9821 17.6813 52.7215 17.712C52.4608 17.7273 52.1848 17.7733 51.8935 17.85C51.9088 17.896 51.9165 17.942 51.9165 17.988C51.9165 18.034 51.9165 18.0723 51.9165 18.103C51.9165 18.2563 51.8935 18.4173 51.8475 18.586C51.6481 19.1993 51.2878 19.6517 50.7665 19.943C50.2451 20.2343 49.7161 20.38 49.1795 20.38C48.6581 20.38 48.2211 20.2727 47.8685 20.058C47.7458 19.9967 47.6308 19.9123 47.5235 19.805C47.3241 19.9123 47.1248 20.035 46.9255 20.173C46.7108 20.311 46.5038 20.449 46.3045 20.587C46.2431 20.633 46.1895 20.656 46.1435 20.656ZM48.9725 19.966C49.4171 19.966 49.8541 19.8203 50.2835 19.529C50.7128 19.253 50.9505 18.7853 50.9965 18.126C49.9845 18.4787 48.9418 18.9693 47.8685 19.598C48.1138 19.8433 48.4818 19.966 48.9725 19.966ZM59.1166 20.518C58.1506 20.518 57.2459 20.3187 56.4026 19.92C55.5592 19.5213 54.8769 18.8773 54.3556 17.988C53.8496 17.0987 53.5966 15.9257 53.5966 14.469C53.5966 14.147 53.6042 13.8173 53.6196 13.48C53.6502 13.1273 53.6962 12.767 53.7576 12.399C53.6502 12.3837 53.5429 12.3837 53.4356 12.399C53.3282 12.399 53.2362 12.399 53.1596 12.399C53.0216 12.399 52.9142 12.3683 52.8376 12.307C52.7609 12.2457 52.7149 12.1153 52.6996 11.916C52.6996 11.7013 52.7456 11.502 52.8376 11.318C52.9449 11.134 53.0522 11.1033 53.1596 11.226C53.3282 11.364 53.6349 11.4483 54.0796 11.479C54.3862 10.4057 54.8462 9.41667 55.4596 8.512C56.0882 7.60733 56.8012 6.79467 57.5986 6.074C58.4112 5.338 59.2469 4.717 60.1056 4.211C60.9796 3.68967 61.8152 3.29867 62.6126 3.038C63.4099 2.762 64.1152 2.624 64.7286 2.624C65.2499 2.624 65.6639 2.73133 65.9706 2.946C66.2926 3.16067 66.4536 3.498 66.4536 3.958C66.4536 4.15733 66.4229 4.35667 66.3616 4.556C66.2389 5.07733 66.0396 5.49133 65.7636 5.798C65.5029 6.10467 65.3112 6.258 65.1886 6.258C65.1119 6.258 65.0736 6.21967 65.0736 6.143C65.0736 6.06633 65.1349 5.90533 65.2576 5.66C65.4876 5.246 65.6026 4.88567 65.6026 4.579C65.6026 4.19567 65.4492 3.912 65.1426 3.728C64.8359 3.52867 64.4296 3.429 63.9236 3.429C63.2796 3.429 62.5359 3.59 61.6926 3.912C60.8492 4.234 59.9906 4.72467 59.1166 5.384C58.2426 6.028 57.4376 6.856 56.7016 7.868C55.9809 8.86467 55.4212 10.053 55.0226 11.433C55.3139 11.4023 55.6129 11.3717 55.9196 11.341C56.2262 11.295 56.5022 11.2413 56.7476 11.18C58.7716 10.7353 60.2972 10.421 61.3246 10.237C62.3672 10.0377 63.0189 9.938 63.2796 9.938C63.5096 9.938 63.4942 9.99167 63.2336 10.099C62.9729 10.2063 62.5282 10.3597 61.8996 10.559C61.2862 10.743 60.5349 10.95 59.6456 11.18C58.7562 11.3947 57.7902 11.617 56.7476 11.847C56.4869 11.9083 56.1802 11.985 55.8276 12.077C55.4902 12.169 55.1452 12.2533 54.7926 12.33C54.7006 12.9893 54.6546 13.6103 54.6546 14.193C54.6546 15.573 54.8846 16.6923 55.3446 17.551C55.8046 18.3943 56.4102 19.0077 57.1616 19.391C57.9129 19.7897 58.7256 19.989 59.5996 19.989C60.4889 19.989 61.3706 19.8127 62.2446 19.46C63.1339 19.1073 63.9389 18.6167 64.6596 17.988C65.3802 17.344 65.9246 16.6003 66.2926 15.757C66.4306 15.4657 66.5532 15.32 66.6606 15.32C66.7372 15.32 66.7756 15.3813 66.7756 15.504C66.7756 15.5807 66.7526 15.688 66.7066 15.826C66.4766 16.5007 66.1009 17.1293 65.5796 17.712C65.0582 18.2793 64.4449 18.77 63.7396 19.184C63.0342 19.6133 62.2829 19.943 61.4856 20.173C60.6882 20.403 59.8986 20.518 59.1166 20.518Z" fill="black"/>
</g>
<defs>
<clipPath id="clip0_1_2">
<rect width="86" height="24" fill="white"/>
</clipPath>
</defs>
</svg>
